<svg width="20" height="21" viewBox="0 0 20 21" fill="none" xmlns="http://www.w3.org/2000/svg">
<path d="M16.6866 4.1875H11.269C10.5648 4.1875 10 4.68254 10 5.29612V13.7188C10 13.1053 10.5648 12.6102 11.269 12.6102H16.6866C16.6866 12.6102 16.7424 12.6102 16.7702 12.6102V4.19447C16.7702 4.19447 16.7145 4.19447 16.6866 4.19447V4.1875Z" stroke="white" stroke-width="1.4" stroke-linecap="round" stroke-linejoin="round"/>
<path d="M3.31316 4.1875H8.73075C9.43497 4.1875 9.99973 4.68254 9.99973 5.29612V13.7188C9.99973 13.1053 9.42799 12.6102 8.73075 12.6102H3.31316C3.31316 12.6102 3.25738 12.6102 3.22949 12.6102V4.19447C3.22949 4.19447 3.28527 4.19447 3.31316 4.19447V4.1875Z" stroke="white" stroke-width="1.4" stroke-linecap="round" stroke-linejoin="round"/>
<path d="M4.02734 16.5586H16.0273" stroke="white" stroke-width="1.4" stroke-linecap="round" stroke-linejoin="round"/>
</svg>
