<svg width="20" height="21" viewBox="0 0 20 21" fill="none" xmlns="http://www.w3.org/2000/svg">
<path d="M15.3085 7.02437C14.1485 5.01958 11.9828 3.67188 9.50195 3.67188V10.3769L15.3085 7.02437Z" stroke="white" stroke-width="1.3" stroke-linecap="round" stroke-linejoin="round"/>
<path d="M7.71163 3.91406C7.14171 4.07498 6.5986 4.30295 6.10243 4.59797C5.60626 4.89299 5.15033 5.24835 4.74132 5.65736C4.33902 6.06636 3.98366 6.5223 3.69534 7.02518C3.55454 7.27326 3.42714 7.52805 3.31316 7.79625C3.19917 8.06445 3.1053 8.33265 3.03155 8.61426C2.95779 8.89587 2.89745 9.18418 2.85722 9.4792C2.81699 9.77422 2.79688 10.0759 2.79688 10.3777C2.79688 10.6794 2.81699 10.9811 2.85722 11.2761C2.89745 11.5712 2.95779 11.8595 3.03155 12.1411C3.1053 12.4227 3.20588 12.6976 3.31316 12.9591C3.42714 13.2273 3.55454 13.4821 3.69534 13.7302C3.98366 14.233 4.33902 14.689 4.74132 15.098C5.14362 15.507 5.60626 15.8623 6.10243 16.1574C6.5986 16.4524 7.14171 16.6804 7.71163 16.8413C8.28155 17.0022 8.885 17.0827 9.50186 17.0827C10.1187 17.0827 10.7222 16.9955 11.2921 16.8413C11.862 16.6804 12.3984 16.4524 12.9013 16.1574C13.3975 15.8623 13.8534 15.507 14.2624 15.098C14.6647 14.689 15.0201 14.233 15.3084 13.7302C15.4492 13.4821 15.5766 13.2273 15.6906 12.9591C15.8045 12.6909 15.8984 12.4227 15.9722 12.1411C16.0459 11.8595 16.1063 11.5712 16.1465 11.2761C16.1867 10.9811 16.2068 10.6794 16.2068 10.3777C16.2068 10.0759 16.1867 9.77422 16.1465 9.4792C16.1063 9.18418 16.0459 8.89587 15.9722 8.61426" stroke="white" stroke-width="1.3" stroke-linecap="round" stroke-linejoin="round"/>
</svg>
