<svg width="29" height="24" viewBox="0 0 29 24" fill="none" xmlns="http://www.w3.org/2000/svg">
<g clip-path="url(#clip0_924_40934)">
<path d="M16.8229 23.1654C23.0812 23.1654 28.1545 18.1659 28.1545 11.9987C28.1545 5.83152 23.0812 0.832031 16.8229 0.832031C10.5646 0.832031 5.49121 5.83152 5.49121 11.9987C5.49121 18.1659 10.5646 23.1654 16.8229 23.1654Z" fill="#00A3FF" stroke="#333333" stroke-width="1.5" stroke-linecap="round" stroke-linejoin="round"/>
<path d="M12.1774 23.1654C18.4356 23.1654 23.509 18.1659 23.509 11.9987C23.509 5.83152 18.4356 0.832031 12.1774 0.832031C5.91906 0.832031 0.845703 5.83152 0.845703 11.9987C0.845703 18.1659 5.91906 23.1654 12.1774 23.1654Z" fill="white" stroke="#333333" stroke-width="1.5" stroke-linecap="round" stroke-linejoin="round"/>
<path d="M5.38086 7.80859H7.1582L8.82129 14.5752H8.91016L10.6748 7.80859H12.2998L14.0771 14.5879H14.1533L15.8164 7.80859H17.5938L15.0039 17H13.3662L11.5254 10.5381H11.4619L9.6084 17H7.9707L5.38086 7.80859Z" fill="black"/>
</g>
<defs>
<clipPath id="clip0_924_40934">
<rect width="29" height="24" fill="white"/>
</clipPath>
</defs>
</svg>
