<svg width="32" height="29" viewBox="0 0 32 29" fill="none" xmlns="http://www.w3.org/2000/svg">
<path d="M19.0436 25.1367H12.957L14.233 20.2891H17.7676L19.0436 25.1367Z" fill="white" stroke="#333333" stroke-width="1.5" stroke-linecap="round" stroke-linejoin="round"/>
<path d="M28.9576 5.29926V17.8545C28.9576 19.2055 27.8658 20.2905 26.5148 20.2905H5.4848C4.13375 20.2905 3.04199 19.2055 3.04199 17.8545V5.29926C3.04199 3.94822 4.13375 2.86328 5.4848 2.86328H26.5148C27.8658 2.86328 28.9576 3.94822 28.9576 5.29926Z" fill="white" stroke="#333333" stroke-width="1.5" stroke-linecap="round" stroke-linejoin="round"/>
<path d="M28.9586 5.41969V17.5H3.04297V5.41969C3.04297 4.00185 4.13473 2.86328 5.48578 2.86328H26.5157C27.8668 2.86328 28.9586 4.00185 28.9586 5.41969Z" fill="#00A3FF" stroke="#333333" stroke-width="1.5" stroke-linecap="round" stroke-linejoin="round"/>
<path d="M10.6094 25.1406H21.3905" stroke="#333333" stroke-width="1.5" stroke-linecap="round" stroke-linejoin="round"/>
<path d="M16.0025 5.94141L11.5996 10.1912H14.2391V14.4209H17.7622V10.1912H20.4017L16.0025 5.94141Z" fill="white"/>
</svg>
