<svg xmlns="http://www.w3.org/2000/svg" width="20" height="19" viewBox="0 0 20 19" fill="none">
<path d="M10 5.06094C10 4.10616 9.62072 3.19048 8.94558 2.51535C8.27045 1.84022 7.35478 1.46094 6.4 1.46094H1V14.9609H7.3C8.01608 14.9609 8.70284 15.2454 9.20919 15.7517C9.71554 16.2581 10 16.9449 10 17.6609M10 5.06094V17.6609M10 5.06094C10 4.10616 10.3793 3.19048 11.0544 2.51535C11.7295 1.84022 12.6452 1.46094 13.6 1.46094H19V14.9609H12.7C11.9839 14.9609 11.2972 15.2454 10.7908 15.7517C10.2845 16.2581 10 16.9449 10 17.6609" stroke="#333333" stroke-width="2" stroke-linecap="round" stroke-linejoin="round"/>
</svg>