<svg width="20" height="21" viewBox="0 0 20 21" fill="none" xmlns="http://www.w3.org/2000/svg">
<path d="M5.21592 5.51863C5.21592 6.20132 4.67107 6.75601 4.00047 6.75601C3.32988 6.75601 2.79102 6.19523 2.79102 5.51863C2.79102 4.84203 3.33587 4.28125 4.00646 4.28125C4.67705 4.28125 5.22191 4.83594 5.22191 5.51863H5.21592Z" stroke="white" stroke-width="1.3" stroke-linecap="round" stroke-linejoin="round"/>
<path d="M7.7627 5.51953H16.1342" stroke="white" stroke-width="1.3" stroke-linecap="round" stroke-linejoin="round"/>
<path d="M5.21605 10.378C5.21605 11.0607 4.67119 11.6154 4.0006 11.6154C3.33001 11.6154 2.78516 11.0607 2.78516 10.378C2.78516 9.69531 3.33001 9.14062 4.0006 9.14062C4.67119 9.14062 5.21605 9.69531 5.21605 10.378Z" stroke="white" stroke-width="1.3" stroke-linecap="round" stroke-linejoin="round"/>
<path d="M7.7627 10.375H16.1342" stroke="white" stroke-width="1.3" stroke-linecap="round" stroke-linejoin="round"/>
<path d="M5.21605 15.2335C5.21605 15.9162 4.67119 16.4709 4.0006 16.4709C3.33001 16.4709 2.78516 15.9162 2.78516 15.2335C2.78516 14.5508 3.33001 13.9961 4.0006 13.9961C4.67119 13.9961 5.21605 14.5508 5.21605 15.2335Z" stroke="white" stroke-width="1.3" stroke-linecap="round" stroke-linejoin="round"/>
<path d="M7.7627 15.2344H16.1342" stroke="white" stroke-width="1.3" stroke-linecap="round" stroke-linejoin="round"/>
</svg>
