<svg width="16" height="16" viewBox="0 0 16 16" fill="none" xmlns="http://www.w3.org/2000/svg">
<g opacity="0.8">
<path d="M5.03711 7.2V4.925C5.03711 3.30957 6.36304 2 7.99865 2C9.63426 2 10.9602 3.30957 10.9602 4.925V7.2" stroke="#8F99A5" stroke-width="1.2"/>
<path fill-rule="evenodd" clip-rule="evenodd" d="M13.5 7.33301C13.5 6.78072 13.0523 6.33301 12.5 6.33301H3.5C2.94772 6.33301 2.5 6.78072 2.5 7.33301V13.9997C2.5 14.552 2.94771 14.9997 3.5 14.9997H12.5C13.0523 14.9997 13.5 14.552 13.5 13.9997V7.33301ZM8.6 10.2334C8.6 9.90203 8.33137 9.6334 8 9.6334C7.66863 9.6334 7.4 9.90203 7.4 10.2334V11.9667C7.4 12.2981 7.66863 12.5667 8 12.5667C8.33137 12.5667 8.6 12.2981 8.6 11.9667V10.2334Z" fill="#8F99A5"/>
</g>
</svg>
