<svg xmlns="http://www.w3.org/2000/svg" width="17" height="18" viewBox="0 0 17 18" fill="none">
<path d="M15.8834 4.42222L13.6452 2.84837L11.7996 1.55037C10.9209 0.927603 9.69049 1.1053 9.03279 1.24914L1.77257 2.87883C0.793662 3.10053 0 4.08883 0 5.08899V12.151C0 13.1511 0.793662 14.1394 1.77257 14.3611L9.03109 15.9959C10.01 16.2159 11.4699 15.9265 12.2907 15.3494L15.8851 12.8211C16.8267 12.1628 17 11.6314 17 10.6821V6.56299C17 5.58483 16.8351 5.08391 15.8851 4.42222" fill="#53657C"/>
<path d="M12.8141 4.10441V4.33456L10.9378 3.37671C10.7356 3.27518 10.3923 3.22102 10.1696 3.25825L8.05718 3.59671C7.81076 3.63733 7.60852 3.87425 7.60852 4.12302V10.0343C7.60852 11.2459 6.77577 11.5421 5.85974 11.4541L4.55283 11.3289C3.55353 11.2307 3.18134 10.4979 3.18134 9.64164V4.84056C3.18134 4.59179 2.98081 4.42087 2.73268 4.45979L1.56853 4.64594C1.3204 4.68487 1.11816 4.9201 1.11816 5.17056V9.85994C1.11816 11.8298 2.38089 12.9129 4.64461 13.2513L6.28291 13.5018C8.68259 13.8589 10.5758 12.7233 10.5758 10.0038V5.98964L12.8158 6.56164V8.90717C12.8158 9.15764 13.018 9.3421 13.2678 9.3201L14.0768 9.25917C14.3266 9.23717 14.5288 9.01548 14.5288 8.76671V6.99825L15.7066 7.29948C15.8527 7.33671 15.97 7.24702 15.97 7.09471V6.20964C15.97 6.05902 15.8612 5.88302 15.7287 5.81364L14.5288 5.20271V4.8981C14.5288 3.69148 13.9816 3.17702 13.6247 2.87748L13.6451 2.84364L11.7995 1.54733L11.7961 1.54395C12.3824 1.95856 12.8141 2.72687 12.8141 4.09933" fill="white"/>
<path d="M0.988876 3.94601L0.946389 3.93247C0.832523 3.84447 1.21831 3.23016 1.99158 3.05078C2.87361 2.86124 9.07335 1.52093 9.07335 1.52093C9.51862 1.42786 9.8976 1.39062 10.2222 1.39062C11.6328 1.39062 11.9778 2.11493 11.8809 2.24016C11.8452 2.28416 11.8078 2.30278 11.7636 2.30278C11.6617 2.30278 11.524 2.20462 11.2912 2.10647C11.0584 2.00832 10.727 1.91186 10.2409 1.91186C9.94179 1.91186 9.5849 1.94739 9.15323 2.04386C9.15323 2.04386 3.45993 3.17939 2.32807 3.40616C1.49702 3.58047 1.14353 3.94601 0.988876 3.94601ZM10.2256 1.39401C9.901 1.39401 9.52032 1.43124 9.07505 1.52601C9.07505 1.52601 2.88381 2.86293 1.99327 3.05416C1.22511 3.23186 0.839321 3.84278 0.953187 3.92909L0.995674 3.94093C1.14863 3.94093 1.49702 3.57878 2.32468 3.40447C3.44804 3.17939 9.15153 2.04047 9.15153 2.04047C9.5832 1.94401 9.94179 1.90678 10.2426 1.90678C10.7287 1.90678 11.0584 2.00493 11.2912 2.10309C11.524 2.20124 11.66 2.2977 11.7619 2.2977C11.8044 2.2977 11.8418 2.27909 11.8775 2.23678C11.9744 2.11324 11.6311 1.39232 10.2273 1.39232" fill="#ED4896"/>
</svg>