<svg xmlns="http://www.w3.org/2000/svg" width="172" height="25" viewBox="0 0 172 25" fill="none">
<g clip-path="url(#clip0_175_7974)">
<path d="M22.9237 6.48905L19.7638 4.26715L17.1582 2.43468C15.9178 1.55548 14.1807 1.80634 13.2522 2.00942L3.00245 4.31016C1.62046 4.62314 0.5 6.01839 0.5 7.43038V17.4003C0.5 18.8122 1.62046 20.2075 3.00245 20.5205L13.2498 22.8284C14.6318 23.139 16.6927 22.7304 17.8516 21.9157L22.9261 18.3464C24.2553 17.417 24.5 16.6668 24.5 15.3265V9.51132C24.5 8.13039 24.2673 7.42321 22.9261 6.48905" fill="white"/>
<path d="M18.5909 6.04055V6.36547L15.9421 5.01322C15.6566 4.86987 15.172 4.79342 14.8577 4.84598L11.8754 5.32381C11.5275 5.38115 11.242 5.71563 11.242 6.06683V14.4121C11.242 16.1227 10.0663 16.5408 8.77309 16.4166L6.92805 16.2398C5.51727 16.1012 4.99183 15.0667 4.99183 13.8578V7.07983C4.99183 6.72862 4.70871 6.48732 4.35842 6.54227L2.71491 6.80507C2.36462 6.86002 2.0791 7.19212 2.0791 7.54571V14.166C2.0791 16.947 3.86177 18.476 7.05761 18.9539L9.37051 19.3074C12.7583 19.8116 15.4311 18.2084 15.4311 14.3691V8.70205L18.5933 9.50958V12.8209C18.5933 13.1745 18.8789 13.4349 19.2316 13.4039L20.3736 13.3179C20.7263 13.2868 21.0118 12.9738 21.0118 12.6226V10.126L22.6745 10.5512C22.8809 10.6038 23.0464 10.4772 23.0464 10.2622V9.01264C23.0464 8.80001 22.8929 8.55154 22.7057 8.45358L21.0118 7.5911V7.16106C21.0118 5.4576 20.2393 4.7313 19.7354 4.30842L19.7642 4.26064L17.1586 2.43056L17.1538 2.42578C17.9815 3.01112 18.5909 4.09579 18.5909 6.03338" fill="#53657C"/>
<path d="M1.89629 5.81756L1.83631 5.79845C1.67556 5.67421 2.22019 4.80696 3.31187 4.55371C4.55709 4.28612 13.3097 2.39392 13.3097 2.39392C13.9383 2.26252 14.4733 2.20996 14.9316 2.20996C16.923 2.20996 17.41 3.23251 17.2733 3.40931C17.2229 3.47143 17.1701 3.49771 17.1077 3.49771C16.9638 3.49771 16.7694 3.35914 16.4407 3.22057C16.112 3.082 15.6442 2.94582 14.958 2.94582C14.5357 2.94582 14.0318 2.99599 13.4224 3.13217C13.4224 3.13217 5.38484 4.73528 3.78692 5.05543C2.61367 5.30151 2.11462 5.81756 1.89629 5.81756ZM14.9364 2.21474C14.4781 2.21474 13.9407 2.2673 13.3121 2.40109C13.3121 2.40109 4.57149 4.28851 3.31426 4.55849C2.22979 4.80935 1.68515 5.67183 1.84591 5.79367L1.90589 5.8104C2.12182 5.8104 2.61368 5.29912 3.78212 5.05304C5.36805 4.73528 13.42 3.12739 13.42 3.12739C14.0295 2.99121 14.5357 2.93865 14.9604 2.93865C15.6466 2.93865 16.112 3.07722 16.4407 3.21579C16.7694 3.35436 16.9614 3.49054 17.1053 3.49054C17.1653 3.49054 17.2181 3.46426 17.2685 3.40453C17.4052 3.23012 16.9206 2.21235 14.9388 2.21235" fill="#ED4896"/>
</g>
<path d="M39.4141 6.58008C39.4076 7.36133 39.5638 8.11328 39.8828 8.83594C40.2083 9.55208 40.6901 10.1868 41.3281 10.7402C41.9661 11.2936 42.7344 11.7168 43.6328 12.0098L42.5 13.7285C41.543 13.403 40.7129 12.9245 40.0098 12.293C39.3132 11.6549 38.7695 10.903 38.3789 10.0371C37.9818 10.9941 37.4186 11.821 36.6895 12.5176C35.9603 13.2142 35.0911 13.7415 34.082 14.0996L32.8711 12.3809C33.8086 12.0749 34.6029 11.6257 35.2539 11.0332C35.9115 10.4408 36.403 9.76042 36.7285 8.99219C37.0605 8.22396 37.2266 7.41341 37.2266 6.56055V4.54883H39.4141V6.58008ZM35.7031 15.1543H37.9297V19.002H47.7148V20.7598H35.7031V15.1543ZM44.8438 3.45508H47.0117V8.66992H49.4727V10.5059H47.0117V16.4238H44.8438V3.45508ZM55.2734 4.23633C56.0286 4.23633 56.722 4.37305 57.3535 4.64648C57.985 4.91341 58.5124 5.29427 58.9355 5.78906C59.3652 6.27734 59.6517 6.84049 59.7949 7.47852H62.9883V3.45508H65.1562V12.9277H62.9883V9.23633H59.8145C59.6777 9.89388 59.3945 10.4733 58.9648 10.9746C58.5417 11.4759 58.0111 11.8665 57.373 12.1465C56.735 12.4199 56.0352 12.5566 55.2734 12.5566C54.3815 12.5566 53.5807 12.3776 52.8711 12.0195C52.1615 11.6615 51.6048 11.1667 51.2012 10.5352C50.804 9.89714 50.6055 9.17773 50.6055 8.37695C50.6055 7.58268 50.804 6.86979 51.2012 6.23828C51.6048 5.60677 52.1615 5.11523 52.8711 4.76367C53.5807 4.41211 54.3815 4.23633 55.2734 4.23633ZM52.6758 8.37695C52.6758 8.83919 52.7865 9.24935 53.0078 9.60742C53.2292 9.96549 53.5352 10.2422 53.9258 10.4375C54.3229 10.6263 54.7721 10.7207 55.2734 10.7207C55.7617 10.7207 56.1979 10.6263 56.582 10.4375C56.9727 10.2422 57.2786 9.96549 57.5 9.60742C57.7214 9.24935 57.832 8.83919 57.832 8.37695C57.832 7.91471 57.7214 7.50781 57.5 7.15625C57.2786 6.79818 56.9759 6.52474 56.5918 6.33594C56.2077 6.14714 55.7682 6.05273 55.2734 6.05273C54.7656 6.05273 54.3164 6.14714 53.9258 6.33594C53.5352 6.52474 53.2292 6.79818 53.0078 7.15625C52.7865 7.50781 52.6758 7.91471 52.6758 8.37695ZM53.5156 13.748H55.6641V15.623H62.9883V13.748H65.1562V20.8965H53.5156V13.748ZM62.9883 19.1387V17.3027H55.6641V19.1387H62.9883ZM82.8906 21.1113H80.7812V3.45508H82.8906V21.1113ZM68.2422 5.52539H74.9609V7.26367H70.3711V15.252C71.4714 15.2454 72.4251 15.2096 73.2324 15.1445C74.0397 15.0794 74.8568 14.959 75.6836 14.7832L75.8594 16.5605C74.9154 16.7559 73.9648 16.8893 73.0078 16.9609C72.0573 17.026 70.8659 17.0618 69.4336 17.0684H68.2422V5.52539ZM73.75 9.99805H77.1484V3.80664H79.1797V20.252H77.1484V11.7754H73.75V9.99805ZM99.6289 21.1309H97.4414V3.45508H99.6289V21.1309ZM85.5078 10.9746C85.5078 9.73112 85.7031 8.63737 86.0938 7.69336C86.4844 6.74935 87.028 6.02344 87.7246 5.51562C88.4277 5.0013 89.2253 4.74414 90.1172 4.74414C90.9961 4.74414 91.7839 5.0013 92.4805 5.51562C93.1836 6.02344 93.7337 6.74935 94.1309 7.69336C94.528 8.63737 94.7266 9.73112 94.7266 10.9746C94.7266 12.2311 94.528 13.3314 94.1309 14.2754C93.7337 15.2194 93.1836 15.9486 92.4805 16.4629C91.7839 16.9707 90.9961 17.2246 90.1172 17.2246C89.2253 17.2246 88.4277 16.9707 87.7246 16.4629C87.028 15.9486 86.4844 15.2194 86.0938 14.2754C85.7031 13.3314 85.5078 12.2311 85.5078 10.9746ZM87.5977 10.9746C87.5977 11.8665 87.7018 12.6348 87.9102 13.2793C88.125 13.9238 88.4212 14.4154 88.7988 14.7539C89.1764 15.0924 89.6159 15.265 90.1172 15.2715C90.612 15.265 91.0482 15.0924 91.4258 14.7539C91.8034 14.4154 92.0964 13.9238 92.3047 13.2793C92.513 12.6348 92.6172 11.8665 92.6172 10.9746C92.6172 10.0892 92.513 9.32747 92.3047 8.68945C92.0964 8.04492 91.8034 7.55339 91.4258 7.21484C91.0482 6.86979 90.612 6.69727 90.1172 6.69727C89.6159 6.69727 89.1764 6.86979 88.7988 7.21484C88.4212 7.55339 88.125 8.04492 87.9102 8.68945C87.7018 9.32747 87.5977 10.0892 87.5977 10.9746ZM117.031 21.1309H114.883V11.5996H111.562V9.8418H114.883V3.45508H117.031V21.1309ZM103.027 4.97852H111.289V6.75586H105.215V9.91992H110.586V11.6387H105.215V15.2715C106.641 15.265 107.887 15.2292 108.955 15.1641C110.023 15.099 111.1 14.9785 112.188 14.8027L112.402 16.5605C111.185 16.7428 109.971 16.8698 108.76 16.9414C107.555 17.013 106.107 17.0553 104.414 17.0684H103.027V4.97852ZM134.121 5.60352H131.699V8.2793H134.023V9.91992H121.055V8.2793H123.379V5.60352H120.957V3.96289H134.121V5.60352ZM119.512 11.0332H135.605V12.752H119.512V11.0332ZM121.406 13.9434H133.594V18.1426H123.555V19.334H134.082V20.9551H121.426V16.6387H131.465V15.5254H121.406V13.9434ZM129.512 8.2793V5.60352H125.547V8.2793H129.512ZM151.895 15.3887H149.824V9.62695H147.988V13.9043H145.957V3.80664H147.988V7.86914H149.824V3.47461H151.895V15.3887ZM137.52 4.74414H144.238V9.95898H139.648V12C140.729 11.987 141.683 11.9479 142.51 11.8828C143.343 11.8112 144.193 11.6908 145.059 11.5215L145.254 13.2207C144.277 13.4225 143.314 13.556 142.363 13.6211C141.419 13.6797 140.215 13.709 138.75 13.709H137.539V8.37695H142.148V6.50195H137.52V4.74414ZM138.945 19.334C140.098 19.1842 141.113 18.8913 141.992 18.4551C142.871 18.0189 143.551 17.4948 144.033 16.8828C144.515 16.2708 144.759 15.6296 144.766 14.959V14.5879H146.934V14.959C146.927 15.6296 147.161 16.2708 147.637 16.8828C148.118 17.4948 148.802 18.0189 149.688 18.4551C150.573 18.8913 151.595 19.1842 152.754 19.334L151.875 21.0137C150.501 20.8118 149.29 20.4115 148.242 19.8125C147.194 19.2201 146.396 18.4876 145.85 17.6152C145.303 18.4876 144.505 19.2201 143.457 19.8125C142.409 20.4115 141.198 20.8118 139.824 21.0137L138.945 19.334ZM170.176 13.8457H154.082V12.127H161.016V10.5059H155.625V8.74805H157.949V5.7207H155.527V3.98242H168.691V5.7207H166.27V8.74805H168.594V10.5059H163.184V12.127H170.176V13.8457ZM155.977 15.2324H168.223V20.8965H155.977V15.2324ZM166.113 19.1387V16.9316H158.125V19.1387H166.113ZM164.082 8.74805V5.7207H160.117V8.74805H164.082Z" fill="white"/>
<defs>
<clipPath id="clip0_175_7974">
<rect width="24" height="24" fill="white" transform="translate(0.5 0.373047)"/>
</clipPath>
</defs>
</svg>