<svg xmlns="http://www.w3.org/2000/svg" width="198" height="30" viewBox="0 0 198 30" fill="none">
<path d="M22.4237 9.14726L19.2638 6.92536L16.6582 5.09289C15.4178 4.21368 13.6807 4.46454 12.7522 4.66762L2.50245 6.96836C1.12046 7.28134 0 8.6766 0 10.0886V20.0585C0 21.4704 1.12046 22.8657 2.50245 23.1787L12.7498 25.4866C14.1318 25.7972 16.1927 25.3886 17.3516 24.5739L22.4261 21.0046C23.7553 20.0752 24 19.325 24 17.9847V12.1695C24 10.7886 23.7673 10.0814 22.4261 9.14726" fill="#53657C"/>
<path d="M18.0909 8.69875V9.02368L15.4421 7.67142C15.1566 7.52807 14.672 7.45162 14.3577 7.50418L11.3754 7.98201C11.0275 8.03935 10.742 8.37383 10.742 8.72503V17.0703C10.742 18.7809 9.56631 19.199 8.27309 19.0748L6.42805 18.898C5.01727 18.7594 4.49183 17.7249 4.49183 16.516V9.73803C4.49183 9.38683 4.20871 9.14552 3.85842 9.20047L2.21491 9.46328C1.86462 9.51823 1.5791 9.85032 1.5791 10.2039V16.8242C1.5791 19.6052 3.36177 21.1342 6.55761 21.6121L8.87051 21.9656C12.2583 22.4698 14.9311 20.8666 14.9311 17.0273V11.3603L18.0933 12.1678V15.4791C18.0933 15.8327 18.3789 16.0931 18.7316 16.0621L19.8736 15.9761C20.2263 15.945 20.5118 15.632 20.5118 15.2808V12.7842L22.1745 13.2094C22.3809 13.262 22.5464 13.1354 22.5464 12.9204V11.6708C22.5464 11.4582 22.3929 11.2097 22.2057 11.1118L20.5118 10.2493V9.81926C20.5118 8.1158 19.7393 7.3895 19.2354 6.96663L19.2642 6.91884L16.6586 5.08876L16.6538 5.08398C17.4815 5.66932 18.0909 6.75399 18.0909 8.69159" fill="white"/>
<path d="M1.39629 8.47577L1.33631 8.45665C1.17556 8.33242 1.72019 7.46516 2.81187 7.21191C4.05709 6.94433 12.8097 5.05213 12.8097 5.05213C13.4383 4.92073 13.9733 4.86816 14.4316 4.86816C16.423 4.86816 16.91 5.89072 16.7733 6.06751C16.7229 6.12963 16.6701 6.15591 16.6077 6.15591C16.4638 6.15591 16.2694 6.01734 15.9407 5.87877C15.612 5.7402 15.1442 5.60402 14.458 5.60402C14.0357 5.60402 13.5318 5.65419 12.9224 5.79037C12.9224 5.79037 4.88484 7.39349 3.28692 7.71363C2.11367 7.95971 1.61462 8.47577 1.39629 8.47577ZM14.4364 4.87294C13.9781 4.87294 13.4407 4.9255 12.8121 5.0593C12.8121 5.0593 4.07149 6.94672 2.81426 7.21669C1.72979 7.46755 1.18515 8.33003 1.34591 8.45187L1.40589 8.4686C1.62182 8.4686 2.11368 7.95732 3.28212 7.71124C4.86805 7.39349 12.92 5.78559 12.92 5.78559C13.5295 5.64941 14.0357 5.59685 14.4604 5.59685C15.1466 5.59685 15.612 5.73542 15.9407 5.87399C16.2694 6.01256 16.4614 6.14874 16.6053 6.14874C16.6653 6.14874 16.7181 6.12246 16.7685 6.06273C16.9052 5.88833 16.4206 4.87055 14.4388 4.87055" fill="#ED4896"/>
<path d="M40.2969 8.17969C40.2891 9.11719 40.4766 10.0195 40.8594 10.8867C41.25 11.7461 41.8281 12.5078 42.5938 13.1719C43.3594 13.8359 44.2812 14.3438 45.3594 14.6953L44 16.7578C42.8516 16.3672 41.8555 15.793 41.0117 15.0352C40.1758 14.2695 39.5234 13.3672 39.0547 12.3281C38.5781 13.4766 37.9023 14.4688 37.0273 15.3047C36.1523 16.1406 35.1094 16.7734 33.8984 17.2031L32.4453 15.1406C33.5703 14.7734 34.5234 14.2344 35.3047 13.5234C36.0938 12.8125 36.6836 11.9961 37.0742 11.0742C37.4727 10.1523 37.6719 9.17969 37.6719 8.15625V5.74219H40.2969V8.17969ZM35.8438 18.4688H38.5156V23.0859H50.2578V25.1953H35.8438V18.4688ZM46.8125 4.42969H49.4141V10.6875H52.3672V12.8906H49.4141V19.9922H46.8125V4.42969ZM59.3281 5.36719C60.2344 5.36719 61.0664 5.53125 61.8242 5.85938C62.582 6.17969 63.2148 6.63672 63.7227 7.23047C64.2383 7.81641 64.582 8.49219 64.7539 9.25781H68.5859V4.42969H71.1875V15.7969H68.5859V11.3672H64.7773C64.6133 12.1562 64.2734 12.8516 63.7578 13.4531C63.25 14.0547 62.6133 14.5234 61.8477 14.8594C61.082 15.1875 60.2422 15.3516 59.3281 15.3516C58.2578 15.3516 57.2969 15.1367 56.4453 14.707C55.5938 14.2773 54.9258 13.6836 54.4414 12.9258C53.9648 12.1602 53.7266 11.2969 53.7266 10.3359C53.7266 9.38281 53.9648 8.52734 54.4414 7.76953C54.9258 7.01172 55.5938 6.42188 56.4453 6C57.2969 5.57812 58.2578 5.36719 59.3281 5.36719ZM56.2109 10.3359C56.2109 10.8906 56.3438 11.3828 56.6094 11.8125C56.875 12.2422 57.2422 12.5742 57.7109 12.8086C58.1875 13.0352 58.7266 13.1484 59.3281 13.1484C59.9141 13.1484 60.4375 13.0352 60.8984 12.8086C61.3672 12.5742 61.7344 12.2422 62 11.8125C62.2656 11.3828 62.3984 10.8906 62.3984 10.3359C62.3984 9.78125 62.2656 9.29297 62 8.87109C61.7344 8.44141 61.3711 8.11328 60.9102 7.88672C60.4492 7.66016 59.9219 7.54688 59.3281 7.54688C58.7188 7.54688 58.1797 7.66016 57.7109 7.88672C57.2422 8.11328 56.875 8.44141 56.6094 8.87109C56.3438 9.29297 56.2109 9.78125 56.2109 10.3359ZM57.2188 16.7812H59.7969V19.0312H68.5859V16.7812H71.1875V25.3594H57.2188V16.7812ZM68.5859 23.25V21.0469H59.7969V23.25H68.5859ZM92.4688 25.6172H89.9375V4.42969H92.4688V25.6172ZM74.8906 6.91406H82.9531V9H77.4453V18.5859C78.7656 18.5781 79.9102 18.5352 80.8789 18.457C81.8477 18.3789 82.8281 18.2344 83.8203 18.0234L84.0312 20.1562C82.8984 20.3906 81.7578 20.5508 80.6094 20.6367C79.4688 20.7148 78.0391 20.7578 76.3203 20.7656H74.8906V6.91406ZM81.5 12.2812H85.5781V4.85156H88.0156V24.5859H85.5781V14.4141H81.5V12.2812ZM112.555 25.6406H109.93V4.42969H112.555V25.6406ZM95.6094 13.4531C95.6094 11.9609 95.8438 10.6484 96.3125 9.51562C96.7812 8.38281 97.4336 7.51172 98.2695 6.90234C99.1133 6.28516 100.07 5.97656 101.141 5.97656C102.195 5.97656 103.141 6.28516 103.977 6.90234C104.82 7.51172 105.48 8.38281 105.957 9.51562C106.434 10.6484 106.672 11.9609 106.672 13.4531C106.672 14.9609 106.434 16.2812 105.957 17.4141C105.48 18.5469 104.82 19.4219 103.977 20.0391C103.141 20.6484 102.195 20.9531 101.141 20.9531C100.07 20.9531 99.1133 20.6484 98.2695 20.0391C97.4336 19.4219 96.7812 18.5469 96.3125 17.4141C95.8438 16.2812 95.6094 14.9609 95.6094 13.4531ZM98.1172 13.4531C98.1172 14.5234 98.2422 15.4453 98.4922 16.2188C98.75 16.9922 99.1055 17.582 99.5586 17.9883C100.012 18.3945 100.539 18.6016 101.141 18.6094C101.734 18.6016 102.258 18.3945 102.711 17.9883C103.164 17.582 103.516 16.9922 103.766 16.2188C104.016 15.4453 104.141 14.5234 104.141 13.4531C104.141 12.3906 104.016 11.4766 103.766 10.7109C103.516 9.9375 103.164 9.34766 102.711 8.94141C102.258 8.52734 101.734 8.32031 101.141 8.32031C100.539 8.32031 100.012 8.52734 99.5586 8.94141C99.1055 9.34766 98.75 9.9375 98.4922 10.7109C98.2422 11.4766 98.1172 12.3906 98.1172 13.4531ZM133.438 25.6406H130.859V14.2031H126.875V12.0938H130.859V4.42969H133.438V25.6406ZM116.633 6.25781H126.547V8.39062H119.258V12.1875H125.703V14.25H119.258V18.6094C120.969 18.6016 122.465 18.5586 123.746 18.4805C125.027 18.4023 126.32 18.2578 127.625 18.0469L127.883 20.1562C126.422 20.375 124.965 20.5273 123.512 20.6133C122.066 20.6992 120.328 20.75 118.297 20.7656H116.633V6.25781ZM153.945 7.00781H151.039V10.2188H153.828V12.1875H138.266V10.2188H141.055V7.00781H138.148V5.03906H153.945V7.00781ZM136.414 13.5234H155.727V15.5859H136.414V13.5234ZM138.688 17.0156H153.312V22.0547H141.266V23.4844H153.898V25.4297H138.711V20.25H150.758V18.9141H138.688V17.0156ZM148.414 10.2188V7.00781H143.656V10.2188H148.414ZM175.273 18.75H172.789V11.8359H170.586V16.9688H168.148V4.85156H170.586V9.72656H172.789V4.45312H175.273V18.75ZM158.023 5.97656H166.086V12.2344H160.578V14.6836C161.875 14.668 163.02 14.6211 164.012 14.543C165.012 14.457 166.031 14.3125 167.07 14.1094L167.305 16.1484C166.133 16.3906 164.977 16.5508 163.836 16.6289C162.703 16.6992 161.258 16.7344 159.5 16.7344H158.047V10.3359H163.578V8.08594H158.023V5.97656ZM159.734 23.4844C161.117 23.3047 162.336 22.9531 163.391 22.4297C164.445 21.9062 165.262 21.2773 165.84 20.543C166.418 19.8086 166.711 19.0391 166.719 18.2344V17.7891H169.32V18.2344C169.312 19.0391 169.594 19.8086 170.164 20.543C170.742 21.2773 171.562 21.9062 172.625 22.4297C173.688 22.9531 174.914 23.3047 176.305 23.4844L175.25 25.5C173.602 25.2578 172.148 24.7773 170.891 24.0586C169.633 23.3477 168.676 22.4688 168.02 21.4219C167.363 22.4688 166.406 23.3477 165.148 24.0586C163.891 24.7773 162.438 25.2578 160.789 25.5L159.734 23.4844ZM197.211 16.8984H177.898V14.8359H186.219V12.8906H179.75V10.7812H182.539V7.14844H179.633V5.0625H195.43V7.14844H192.523V10.7812H195.312V12.8906H188.82V14.8359H197.211V16.8984ZM180.172 18.5625H194.867V25.3594H180.172V18.5625ZM192.336 23.25V20.6016H182.75V23.25H192.336ZM189.898 10.7812V7.14844H185.141V10.7812H189.898Z" fill="#53657C"/>
</svg>