<svg width="20" height="21" viewBox="0 0 20 21" fill="none" xmlns="http://www.w3.org/2000/svg">
<path d="M11.5 2.875H5.5C5.10218 2.875 4.72064 3.03304 4.43934 3.31434C4.15804 3.59564 4 3.97718 4 4.375V16.375C4 16.7728 4.15804 17.1544 4.43934 17.4357C4.72064 17.717 5.10218 17.875 5.5 17.875H14.5C14.8978 17.875 15.2794 17.717 15.5607 17.4357C15.842 17.1544 16 16.7728 16 16.375V7.375M11.5 2.875L16 7.375M11.5 2.875V7.375H16M13 11.125H7M13 14.125H7M8.5 8.125H7" stroke="white" stroke-width="1.3" stroke-linecap="round" stroke-linejoin="round"/>
</svg>
