<svg width="20" height="21" viewBox="0 0 20 21" fill="none" xmlns="http://www.w3.org/2000/svg">
<path d="M12.469 5.62033C12.469 5.97862 12.1796 6.26801 11.8213 6.26801H7.70784C7.34955 6.26801 7.06016 5.97862 7.06016 5.62033C7.06016 5.26204 6.77077 4.97266 6.41248 4.97266H4.65549C4.2972 4.97266 4.00781 5.26204 4.00781 5.62033V16.245C4.00781 16.6033 4.2972 16.8927 4.65549 16.8927H14.8667C15.225 16.8927 15.5144 16.6033 15.5144 16.245V5.62033C15.5144 5.26204 15.225 4.97266 14.8667 4.97266H13.1166C12.7583 4.97266 12.469 5.26204 12.469 5.62033Z" stroke="white" stroke-width="1.3" stroke-linecap="round" stroke-linejoin="round"/>
<path d="M11.8217 3.39453H7.70139C7.34369 3.39453 7.05371 3.68451 7.05371 4.04221V5.62695C7.05371 5.98465 7.34369 6.27463 7.70139 6.27463H11.8217C12.1794 6.27463 12.4694 5.98465 12.4694 5.62695V4.04221C12.4694 3.68451 12.1794 3.39453 11.8217 3.39453Z" stroke="white" stroke-width="1.3" stroke-linecap="round" stroke-linejoin="round"/>
<path d="M8.49316 9.44922H11.0287" stroke="white" stroke-width="1.3" stroke-linecap="round" stroke-linejoin="round"/>
<path d="M8.49316 12.4961H11.0287" stroke="white" stroke-width="1.3" stroke-linecap="round" stroke-linejoin="round"/>
</svg>
