<svg width="20" height="20" viewBox="0 0 20 20" fill="none" xmlns="http://www.w3.org/2000/svg">
<path d="M2.5 6.10684C2.50012 5.69612 2.66531 5.30103 2.96167 5.00268C3.25802 4.70432 3.66305 4.52535 4.0936 4.50249C4.52415 4.47964 4.94756 4.61464 5.27688 4.87979C5.60621 5.14493 5.81647 5.52009 5.8645 5.92826H14.1355C14.1835 5.52009 14.3938 5.14493 14.7231 4.87979C15.0524 4.61464 15.4758 4.47964 15.9064 4.50249C16.3369 4.52535 16.742 4.70432 17.0383 5.00268C17.3347 5.30103 17.4999 5.69612 17.5 6.10684V13.6074C17.4999 14.0182 17.3347 14.4133 17.0383 14.7116C16.742 15.01 16.3369 15.1889 15.9064 15.2118C15.4758 15.2346 15.0524 15.0996 14.7231 14.8345C14.3938 14.5694 14.1835 14.1942 14.1355 13.786H5.8645C5.81647 14.1942 5.60621 14.5694 5.27688 14.8345C4.94756 15.0996 4.52415 15.2346 4.0936 15.2118C3.66305 15.1889 3.25802 15.01 2.96167 14.7116C2.66531 14.4133 2.50012 14.0182 2.5 13.6074V6.10684ZM4.75 6.10684C4.75 5.96475 4.69074 5.82848 4.58525 5.728C4.47976 5.62753 4.33668 5.57108 4.1875 5.57108C4.03832 5.57108 3.89524 5.62753 3.78975 5.728C3.68426 5.82848 3.625 5.96475 3.625 6.10684V13.6074C3.625 13.7495 3.68426 13.8858 3.78975 13.9863C3.89524 14.0868 4.03832 14.1432 4.1875 14.1432C4.33668 14.1432 4.47976 14.0868 4.58525 13.9863C4.69074 13.8858 4.75 13.7495 4.75 13.6074V6.10684ZM5.875 12.7145H14.125V6.99977H5.875V12.7145ZM16.375 6.10684C16.375 5.96475 16.3157 5.82848 16.2102 5.728C16.1048 5.62753 15.9617 5.57108 15.8125 5.57108C15.6633 5.57108 15.5202 5.62753 15.4148 5.728C15.3093 5.82848 15.25 5.96475 15.25 6.10684V13.6074C15.25 13.7495 15.3093 13.8858 15.4148 13.9863C15.5202 14.0868 15.6633 14.1432 15.8125 14.1432C15.9617 14.1432 16.1048 14.0868 16.2102 13.9863C16.3157 13.8858 16.375 13.7495 16.375 13.6074V6.10684Z" fill="white"/>
</svg>
