<svg width="20" height="20" viewBox="0 0 20 20" fill="none" xmlns="http://www.w3.org/2000/svg">
<path d="M8.64 12.79C8.9803 12.79 9.3123 12.7651 9.6443 12.7402C9.802 12.1094 10.0676 11.5118 10.4328 10.9889C9.8601 11.0802 9.2542 11.13 8.64 11.13C6.6314 11.13 4.739 10.632 3.66 9.8435V7.5112C4.8801 8.2001 6.6563 8.64 8.64 8.64C10.6237 8.64 12.3999 8.2001 13.62 7.5112V8.7977C14.035 8.6981 14.45 8.64 14.9065 8.64C15.031 8.64 15.1555 8.64 15.28 8.6649V5.32C15.28 3.4857 12.3086 2 8.64 2C4.9714 2 2 3.4857 2 5.32V13.62C2 15.4543 4.9797 16.94 8.64 16.94C9.1878 16.94 9.7273 16.9068 10.2336 16.8404C9.9431 16.3507 9.7273 15.8112 9.6028 15.2302C9.2957 15.28 8.9803 15.28 8.64 15.28C5.4279 15.28 3.66 14.035 3.66 13.62V11.7691C4.9963 12.4165 6.7476 12.79 8.64 12.79ZM8.64 3.66C11.8521 3.66 13.62 4.905 13.62 5.32C13.62 5.735 11.8521 6.98 8.64 6.98C5.4279 6.98 3.66 5.735 3.66 5.32C3.66 4.905 5.4279 3.66 8.64 3.66ZM17.77 14.035C17.77 14.7156 17.5625 15.3464 17.2139 15.8693L16.3092 14.9646C16.4503 14.6824 16.525 14.367 16.525 14.035C16.525 13.4847 16.3064 12.9569 15.9172 12.5678C15.5281 12.1786 15.0003 11.96 14.45 11.96V13.205L12.5825 11.3375L14.45 9.47V10.715C16.2843 10.715 17.77 12.2007 17.77 14.035ZM14.45 14.865L16.3175 16.7325L14.45 18.6V17.355C12.6157 17.355 11.13 15.8693 11.13 14.035C11.13 13.3544 11.3375 12.7236 11.6861 12.2007L12.5908 13.1054C12.4497 13.3876 12.375 13.703 12.375 14.035C12.375 14.5853 12.5936 15.1131 12.9828 15.5022C13.3719 15.8914 13.8997 16.11 14.45 16.11V14.865Z" fill="white"/>
</svg>
