<svg width="20" height="21" viewBox="0 0 20 21" fill="none" xmlns="http://www.w3.org/2000/svg">
<path d="M10.002 12.6266L10.002 7.68359" stroke="white" stroke-width="1.3" stroke-linecap="round" stroke-linejoin="round"/>
<path d="M4.18848 13.1873V10.3086H15.8098V13.1873" stroke="white" stroke-width="1.3" stroke-linecap="round" stroke-linejoin="round"/>
<path d="M12.7759 4.04688H7.45703V7.68464H12.7759V4.04688Z" stroke="white" stroke-width="1.3" stroke-linecap="round" stroke-linejoin="round"/>
<path d="M16.137 16.7053C17.1036 16.7053 17.8872 15.9178 17.8872 14.9464C17.8872 13.975 17.1036 13.1875 16.137 13.1875C15.1703 13.1875 14.3867 13.975 14.3867 14.9464C14.3867 15.9178 15.1703 16.7053 16.137 16.7053Z" stroke="white" stroke-width="1.3" stroke-linecap="round" stroke-linejoin="round"/>
<path d="M10.0022 16.7053C10.9688 16.7053 11.7524 15.9178 11.7524 14.9464C11.7524 13.975 10.9688 13.1875 10.0022 13.1875C9.03556 13.1875 8.25195 13.975 8.25195 14.9464C8.25195 15.9178 9.03556 16.7053 10.0022 16.7053Z" stroke="white" stroke-width="1.3" stroke-linecap="round" stroke-linejoin="round"/>
<path d="M3.86254 16.7053C4.82917 16.7053 5.61278 15.9178 5.61278 14.9464C5.61278 13.975 4.82917 13.1875 3.86254 13.1875C2.89591 13.1875 2.1123 13.975 2.1123 14.9464C2.1123 15.9178 2.89591 16.7053 3.86254 16.7053Z" stroke="white" stroke-width="1.3" stroke-linecap="round" stroke-linejoin="round"/>
</svg>
